<svg width="110" height="80" viewBox="0 0 110 80" fill="none" xmlns="http://www.w3.org/2000/svg">
<g filter="url(#filter0_d_353_4458)">
<rect x="20" y="12" width="70" height="48" rx="15.875" fill="#1F72CD"/>
<path fill-rule="evenodd" clip-rule="evenodd" d="M32.5493 29.0002L26 43.4937H33.8405L34.8125 41.1829H37.0342L38.0062 43.4937H46.6364V41.73L47.4054 43.4937H51.8696L52.6386 41.6927V43.4937H70.587L72.7695 41.2429L74.813 43.4937L84.0317 43.5124L77.4617 36.2874L84.0317 29.0002H74.956L72.8315 31.2095L70.8523 29.0002H51.3268L49.6501 32.7411L47.9341 29.0002H40.11V30.704L39.2396 29.0002H32.5493ZM59.3516 31.0583H69.6584L72.8108 34.4634L76.0648 31.0583H79.2172L74.4275 36.2853L79.2172 41.4522H75.9218L72.7695 38.0075L69.4989 41.4522H59.3516V31.0583ZM61.8968 35.1103V33.2118V33.2099H68.328L71.1342 36.2462L68.2036 39.299H61.8968V37.2263H67.5197V35.1103H61.8968ZM34.0664 31.0583H37.8883L42.2324 40.8864V31.0583H46.4191L49.7745 38.105L52.8668 31.0583H57.0326V41.4583H54.4978L54.4771 33.3089L50.7817 41.4583H48.5142L44.7981 33.3089V41.4583H39.5836L38.595 39.1267H33.254L32.2675 41.4563H29.4736L34.0664 31.0583ZM34.166 36.9713L35.9256 32.8179L37.6832 36.9713H34.166Z" fill="white"/>
</g>
<defs>
<filter id="filter0_d_353_4458" x="0" y="-8" width="110" height="88" filterUnits="userSpaceOnUse" color-interpolation-filters="sRGB">
<feFlood flood-opacity="0" result="BackgroundImageFix"/>
<feColorMatrix in="SourceAlpha" type="matrix" values="0 0 0 0 0 0 0 0 0 0 0 0 0 0 0 0 0 0 127 0" result="hardAlpha"/>
<feOffset/>
<feGaussianBlur stdDeviation="10"/>
<feComposite in2="hardAlpha" operator="out"/>
<feColorMatrix type="matrix" values="0 0 0 0 0 0 0 0 0 0 0 0 0 0 0 0 0 0 0.07 0"/>
<feBlend mode="normal" in2="BackgroundImageFix" result="effect1_dropShadow_353_4458"/>
<feBlend mode="normal" in="SourceGraphic" in2="effect1_dropShadow_353_4458" result="shape"/>
</filter>
</defs>
</svg>
