<svg width="15px" height="15px" viewBox="0 0 12 13" fill="none" xmlns="http://www.w3.org/2000/svg">
<path d="M8.66683 3.16667C8.66683 3.87391 8.38588 4.55219 7.88578 5.05229C7.38568 5.55238 6.70741 5.83333 6.00016 5.83333C5.29292 5.83333 4.61464 5.55238 4.11454 5.05229C3.61445 4.55219 3.3335 3.87391 3.3335 3.16667C3.3335 2.45942 3.61445 1.78115 4.11454 1.28105C4.61464 0.780951 5.29292 0.5 6.00016 0.5C6.70741 0.5 7.38568 0.780951 7.88578 1.28105C8.38588 1.78115 8.66683 2.45942 8.66683 3.16667V3.16667ZM6.00016 7.83333C4.76249 7.83333 3.5755 8.325 2.70033 9.20017C1.82516 10.0753 1.3335 11.2623 1.3335 12.5H10.6668C10.6668 11.2623 10.1752 10.0753 9.29999 9.20017C8.42482 8.325 7.23784 7.83333 6.00016 7.83333V7.83333Z" stroke="#CCD0D7" stroke-width="1.5" stroke-linecap="round" stroke-linejoin="round"/>
</svg>
