<svg width="54" height="54" viewBox="0 0 54 54" fill="none" xmlns="http://www.w3.org/2000/svg">
<path d="M45 18L31.5 6.16501C30.2624 5.05812 28.6603 4.44617 27 4.44617C25.3396 4.44617 23.7375 5.05812 22.5 6.16501L8.99997 18C8.2853 18.6392 7.71499 19.4233 7.32703 20.3001C6.93907 21.1769 6.74235 22.1262 6.74997 23.085V42.75C6.74997 44.5402 7.46113 46.2571 8.727 47.523C9.99287 48.7889 11.7098 49.5 13.5 49.5H40.5C42.2902 49.5 44.0071 48.7889 45.2729 47.523C46.5388 46.2571 47.25 44.5402 47.25 42.75V23.0625C47.2544 22.1075 47.0561 21.1625 46.6683 20.2898C46.2804 19.4171 45.7118 18.6367 45 18ZM31.5 45H22.5V33.75C22.5 33.1533 22.737 32.581 23.159 32.159C23.5809 31.7371 24.1532 31.5 24.75 31.5H29.25C29.8467 31.5 30.419 31.7371 30.841 32.159C31.2629 32.581 31.5 33.1533 31.5 33.75V45ZM42.75 42.75C42.75 43.3467 42.5129 43.919 42.091 44.341C41.669 44.763 41.0967 45 40.5 45H36V33.75C36 31.9598 35.2888 30.2429 34.0229 28.977C32.7571 27.7112 31.0402 27 29.25 27H24.75C22.9598 27 21.2429 27.7112 19.977 28.977C18.7111 30.2429 18 31.9598 18 33.75V45H13.5C12.9032 45 12.3309 44.763 11.909 44.341C11.487 43.919 11.25 43.3467 11.25 42.75V23.0625C11.2504 22.743 11.3188 22.4273 11.4507 22.1364C11.5826 21.8454 11.775 21.5859 12.015 21.375L25.515 9.56251C25.9256 9.2018 26.4534 9.00286 27 9.00286C27.5465 9.00286 28.0744 9.2018 28.485 9.56251L41.985 21.375C42.225 21.5859 42.4173 21.8454 42.5492 22.1364C42.6811 22.4273 42.7496 22.743 42.75 23.0625V42.75Z" fill="#CCD0D7"/>
</svg>
