<svg width="110" height="81" viewBox="0 0 110 81" fill="none" xmlns="http://www.w3.org/2000/svg">
<g filter="url(#filter0_d_353_4479)">
<rect x="20" y="13" width="70" height="48" rx="15.875" fill="white"/>
<path fill-rule="evenodd" clip-rule="evenodd" d="M55.5 47.3139C53.1168 49.3705 50.0255 50.6119 46.6475 50.6119C39.1102 50.6119 33 44.4308 33 36.806C33 29.1811 39.1102 23 46.6475 23C50.0255 23 53.1169 24.2415 55.5 26.2981C57.8832 24.2415 60.9745 23 64.3525 23C71.8898 23 78 29.1812 78 36.806C78 44.4308 71.8898 50.612 64.3525 50.612C60.9745 50.612 57.8831 49.3705 55.5 47.3139Z" fill="#ED0006"/>
<path fill-rule="evenodd" clip-rule="evenodd" d="M55.5 47.3139C58.4344 44.7816 60.2951 41.0136 60.2951 36.806C60.2951 32.5983 58.4344 28.8303 55.5 26.2981C57.8831 24.2415 60.9745 23 64.3524 23C71.8898 23 78 29.1811 78 36.806C78 44.4308 71.8898 50.6119 64.3524 50.6119C60.9745 50.6119 57.8831 49.3704 55.5 47.3139Z" fill="#F9A000"/>
<path fill-rule="evenodd" clip-rule="evenodd" d="M55.5001 47.3138C58.4344 44.7816 60.2951 41.0136 60.2951 36.806C60.2951 32.5984 58.4344 28.8304 55.5001 26.2981C52.5657 28.8304 50.705 32.5983 50.705 36.806C50.705 41.0136 52.5657 44.7816 55.5001 47.3138Z" fill="#FF5E00"/>
</g>
<defs>
<filter id="filter0_d_353_4479" x="0" y="-7" width="110" height="88" filterUnits="userSpaceOnUse" color-interpolation-filters="sRGB">
<feFlood flood-opacity="0" result="BackgroundImageFix"/>
<feColorMatrix in="SourceAlpha" type="matrix" values="0 0 0 0 0 0 0 0 0 0 0 0 0 0 0 0 0 0 127 0" result="hardAlpha"/>
<feOffset/>
<feGaussianBlur stdDeviation="10"/>
<feComposite in2="hardAlpha" operator="out"/>
<feColorMatrix type="matrix" values="0 0 0 0 0 0 0 0 0 0 0 0 0 0 0 0 0 0 0.07 0"/>
<feBlend mode="normal" in2="BackgroundImageFix" result="effect1_dropShadow_353_4479"/>
<feBlend mode="normal" in="SourceGraphic" in2="effect1_dropShadow_353_4479" result="shape"/>
</filter>
</defs>
</svg>
