<svg width="36" height="35" viewBox="0 0 36 35" fill="none" xmlns="http://www.w3.org/2000/svg">
<g clip-path="url(#clip0_69_3079)">
<path d="M22.375 30.625H19.4583V27.7083H22.375V30.625ZM19.4583 20.4167H16.5417V27.7083H19.4583V20.4167ZM31.125 17.5H28.2083V23.3333H31.125V17.5ZM28.2083 14.5833H25.2917V17.5H28.2083V14.5833ZM10.7083 17.5H7.79167V20.4167H10.7083V17.5ZM7.79167 14.5833H4.875V17.5H7.79167V14.5833ZM18 7.29167H20.9167V4.375H18V7.29167ZM7.0625 6.5625V10.9375H11.4375V6.5625H7.0625ZM13.625 13.125H4.875V4.375H13.625V13.125ZM7.0625 24.0625V28.4375H11.4375V24.0625H7.0625ZM13.625 30.625H4.875V21.875H13.625V30.625ZM24.5625 6.5625V10.9375H28.9375V6.5625H24.5625ZM31.125 13.125H22.375V4.375H31.125V13.125ZM28.2083 27.7083V23.3333H22.375V26.25H25.2917V30.625H31.125V27.7083H28.2083ZM25.2917 17.5H19.4583V20.4167H25.2917V17.5ZM19.4583 14.5833H10.7083V17.5H13.625V20.4167H16.5417V17.5H19.4583V14.5833ZM20.9167 13.125V10.2083H18V7.29167H15.0833V13.125H20.9167ZM10.3438 7.65625H8.15625V9.84375H10.3438V7.65625ZM10.3438 25.1562H8.15625V27.3438H10.3438V25.1562ZM27.8438 7.65625H25.6562V9.84375H27.8438V7.65625Z" fill="#B3B8C4"/>
</g>
<defs>
<clipPath id="clip0_69_3079">
<rect width="35" height="35" fill="white" transform="translate(0.5)"/>
</clipPath>
</defs>
</svg>
