<svg width="16" height="17" viewBox="0 0 16 17" fill="none" xmlns="http://www.w3.org/2000/svg">
<g id="sell_black_24dp 1" clip-path="url(#clip0_6743_1122)">
<g id="Group">
<g id="Group_2">
<path id="Vector" d="M14.274 8.10659L8.38732 2.21992C8.14065 1.97325 7.80065 1.83325 7.44732 1.83325H2.66732C1.93398 1.83325 1.33398 2.43325 1.33398 3.16659V7.94659C1.33398 8.29992 1.47398 8.63992 1.72732 8.88659L7.61398 14.7733C8.13398 15.2933 8.98065 15.2933 9.50065 14.7733L14.2807 9.99325C14.8007 9.47325 14.8007 8.63325 14.274 8.10659ZM8.55398 13.8333L2.66732 7.94659V3.16659H7.44732L13.334 9.05325L8.55398 13.8333Z" fill="#646C80"/>
<path id="Vector_2" d="M4.33398 5.83325C4.88627 5.83325 5.33398 5.38554 5.33398 4.83325C5.33398 4.28097 4.88627 3.83325 4.33398 3.83325C3.7817 3.83325 3.33398 4.28097 3.33398 4.83325C3.33398 5.38554 3.7817 5.83325 4.33398 5.83325Z" fill="#646C80"/>
</g>
</g>
</g>
<defs>
<clipPath id="clip0_6743_1122">
<rect width="16" height="16" fill="white" transform="translate(0 0.5)"/>
</clipPath>
</defs>
</svg>
