<svg width="24" height="24" viewBox="0 0 24 24" fill="none" xmlns="http://www.w3.org/2000/svg">
<path fill-rule="evenodd" clip-rule="evenodd" d="M21.5994 11.9994C21.5994 17.3013 17.3013 21.5994 11.9994 21.5994C6.69748 21.5994 2.39941 17.3013 2.39941 11.9994C2.39941 6.69748 6.69748 2.39941 11.9994 2.39941C17.3013 2.39941 21.5994 6.69748 21.5994 11.9994ZM13.1994 16.7994C13.1994 17.4622 12.6622 17.9994 11.9994 17.9994C11.3367 17.9994 10.7994 17.4622 10.7994 16.7994C10.7994 16.1367 11.3367 15.5994 11.9994 15.5994C12.6622 15.5994 13.1994 16.1367 13.1994 16.7994ZM11.9994 5.99941C11.3367 5.99941 10.7994 6.53667 10.7994 7.19941V11.9994C10.7994 12.6622 11.3367 13.1994 11.9994 13.1994C12.6622 13.1994 13.1994 12.6622 13.1994 11.9994V7.19941C13.1994 6.53667 12.6622 5.99941 11.9994 5.99941Z" fill="#9AA1B0"/>
</svg>
