<svg width="24" height="24" viewBox="0 0 24 24" fill="none" xmlns="http://www.w3.org/2000/svg">
<path d="M11 4.99992H6C5.46957 4.99992 4.96086 5.21063 4.58579 5.5857C4.21071 5.96078 4 6.46948 4 6.99992V17.9999C4 18.5304 4.21071 19.0391 4.58579 19.4141C4.96086 19.7892 5.46957 19.9999 6 19.9999H17C17.5304 19.9999 18.0391 19.7892 18.4142 19.4141C18.7893 19.0391 19 18.5304 19 17.9999V12.9999M17.586 3.58592C17.7705 3.3949 17.9912 3.24253 18.2352 3.13772C18.4792 3.0329 18.7416 2.97772 19.0072 2.97542C19.2728 2.97311 19.5361 3.02371 19.7819 3.12427C20.0277 3.22484 20.251 3.37334 20.4388 3.56113C20.6266 3.74891 20.7751 3.97222 20.8756 4.21801C20.9762 4.4638 21.0268 4.72716 21.0245 4.99272C21.0222 5.25828 20.967 5.52072 20.8622 5.76473C20.7574 6.00874 20.605 6.22942 20.414 6.41392L11.828 14.9999H9V12.1719L17.586 3.58592Z" stroke="#9AA1B0" stroke-width="2" stroke-linecap="round" stroke-linejoin="round"/>
</svg>
