<svg width="56" height="80" viewBox="0 0 56 80" fill="none" xmlns="http://www.w3.org/2000/svg">
<path d="M24.5 33V33.01V33ZM24.5 40V40.01V40ZM24.5 47V47.01V47ZM24.5 34C24.2348 34 23.9804 33.8946 23.7929 33.7071C23.6054 33.5196 23.5 33.2652 23.5 33C23.5 32.7348 23.6054 32.4804 23.7929 32.2929C23.9804 32.1054 24.2348 32 24.5 32C24.7652 32 25.0196 32.1054 25.2071 32.2929C25.3946 32.4804 25.5 32.7348 25.5 33C25.5 33.2652 25.3946 33.5196 25.2071 33.7071C25.0196 33.8946 24.7652 34 24.5 34ZM24.5 41C24.2348 41 23.9804 40.8946 23.7929 40.7071C23.6054 40.5196 23.5 40.2652 23.5 40C23.5 39.7348 23.6054 39.4804 23.7929 39.2929C23.9804 39.1054 24.2348 39 24.5 39C24.7652 39 25.0196 39.1054 25.2071 39.2929C25.3946 39.4804 25.5 39.7348 25.5 40C25.5 40.2652 25.3946 40.5196 25.2071 40.7071C25.0196 40.8946 24.7652 41 24.5 41ZM24.5 48C24.2348 48 23.9804 47.8946 23.7929 47.7071C23.6054 47.5196 23.5 47.2652 23.5 47C23.5 46.7348 23.6054 46.4804 23.7929 46.2929C23.9804 46.1054 24.2348 46 24.5 46C24.7652 46 25.0196 46.1054 25.2071 46.2929C25.3946 46.4804 25.5 46.7348 25.5 47C25.5 47.2652 25.3946 47.5196 25.2071 47.7071C25.0196 47.8946 24.7652 48 24.5 48Z" stroke="#CCD0D7" stroke-width="2" stroke-linecap="round" stroke-linejoin="round"/>
<path d="M31.5 33V33.01V33ZM31.5 40V40.01V40ZM31.5 47V47.01V47ZM31.5 34C31.2348 34 30.9804 33.8946 30.7929 33.7071C30.6054 33.5196 30.5 33.2652 30.5 33C30.5 32.7348 30.6054 32.4804 30.7929 32.2929C30.9804 32.1054 31.2348 32 31.5 32C31.7652 32 32.0196 32.1054 32.2071 32.2929C32.3946 32.4804 32.5 32.7348 32.5 33C32.5 33.2652 32.3946 33.5196 32.2071 33.7071C32.0196 33.8946 31.7652 34 31.5 34ZM31.5 41C31.2348 41 30.9804 40.8946 30.7929 40.7071C30.6054 40.5196 30.5 40.2652 30.5 40C30.5 39.7348 30.6054 39.4804 30.7929 39.2929C30.9804 39.1054 31.2348 39 31.5 39C31.7652 39 32.0196 39.1054 32.2071 39.2929C32.3946 39.4804 32.5 39.7348 32.5 40C32.5 40.2652 32.3946 40.5196 32.2071 40.7071C32.0196 40.8946 31.7652 41 31.5 41ZM31.5 48C31.2348 48 30.9804 47.8946 30.7929 47.7071C30.6054 47.5196 30.5 47.2652 30.5 47C30.5 46.7348 30.6054 46.4804 30.7929 46.2929C30.9804 46.1054 31.2348 46 31.5 46C31.7652 46 32.0196 46.1054 32.2071 46.2929C32.3946 46.4804 32.5 46.7348 32.5 47C32.5 47.2652 32.3946 47.5196 32.2071 47.7071C32.0196 47.8946 31.7652 48 31.5 48Z" stroke="#CCD0D7" stroke-width="2" stroke-linecap="round" stroke-linejoin="round"/>
</svg>
